<svg xmlns="http://www.w3.org/2000/svg" xmlns:xlink="http://www.w3.org/1999/xlink" width="3780" zoomAndPan="magnify" viewBox="0 0 2835 1417.499962" height="1890" preserveAspectRatio="xMidYMid meet" version="1.0"><path fill="#f0ae64" d="M 1650.5 974.710938 C 1650.5 974.710938 1645.820312 1055.691406 1652.058594 1063.46875 C 1658.28125 1071.261719 1708.132812 1124.199219 1656.71875 1149.105469 C 1605.328125 1174.03125 1526.914062 1178.183594 1533.679688 1103.949219 C 1533.679688 1103.949219 1533.492188 1104.136719 1533.058594 1104.566406 C 1525.617188 1111.140625 1450.605469 1174.804688 1381.117188 1112.871094 C 1381.453125 1113.734375 1384.046875 1119.78125 1384.742188 1127.484375 C 1385.777344 1139 1382.488281 1154.046875 1360.765625 1160.359375 C 1323.390625 1171.253906 1209.667969 1176.625 1228.367188 1103.441406 C 1228.367188 1103.441406 1236.164062 999.617188 1253.28125 923.332031 C 1270.417969 847.03125 1157.242188 701.695312 1134.390625 662.246094 C 1111.542969 622.796875 1101.152344 556.359375 1101.152344 556.359375 C 1101.152344 556.359375 1040.925781 498.21875 1090.777344 462.921875 C 1090.777344 462.921875 1083.507812 422.441406 1130.238281 434.894531 C 1130.238281 434.894531 1155.15625 385.492188 1187.34375 432.472656 C 1187.34375 432.472656 1251.742188 442.164062 1236.164062 516.910156 C 1236.164062 516.910156 1223.6875 613.445312 1310.933594 669.515625 C 1398.160156 725.570312 1416.835938 722.449219 1431.382812 747.359375 C 1431.382812 747.359375 1532.117188 691.304688 1550.796875 697.542969 C 1569.285156 703.683594 1645.691406 831.722656 1647.34375 894.78125 C 1647.34375 895.457031 1647.363281 896.152344 1647.382812 896.847656 C 1647.382812 896.847656 1719.03125 890.628906 1715.910156 819.003906 C 1715.910156 819.003906 1793.800781 940.445312 1650.5 974.710938 Z M 1650.5 974.710938 " fill-opacity="1" fill-rule="nonzero"/><path fill="#974923" d="M 1722.148438 512.738281 C 1722.148438 629.015625 1690.996094 633.167969 1688.929688 697.523438 C 1686.84375 761.878906 1614.160156 757.726562 1550.816406 697.523438 L 1431.398438 747.359375 C 1431.398438 747.359375 1332.410156 681.445312 1288.175781 652.121094 C 1243.960938 622.796875 1235.902344 540.089844 1235.902344 540.089844 C 1235.902344 540.089844 1244.46875 430.144531 1187.34375 432.472656 C 1187.34375 432.472656 1242.644531 281.78125 1376.773438 285.933594 C 1393.125 286.367188 1410.523438 289.128906 1429.296875 294.761719 L 1479.148438 294.761719 C 1479.148438 294.761719 1570.527344 238.710938 1630.769531 346.664062 C 1691.015625 454.621094 1722.148438 396.480469 1722.148438 512.738281 Z M 1722.148438 512.738281 " fill-opacity="1" fill-rule="nonzero"/><path fill="#f0ae64" d="M 1454.757812 699.609375 C 1362.851562 701.695312 1292.066406 687.15625 1310.933594 570.878906 C 1323.390625 494.050781 1423.074219 570.878906 1381.546875 394.398438 C 1381.546875 394.398438 1369.257812 331.769531 1376.792969 285.914062 C 1393.140625 286.347656 1410.542969 289.109375 1429.3125 294.742188 L 1479.167969 294.742188 C 1479.167969 294.742188 1506.167969 344.578125 1479.167969 435.929688 C 1452.164062 527.277344 1553.933594 535.582031 1566.394531 583.332031 C 1578.851562 631.082031 1546.644531 697.523438 1454.757812 699.609375 Z M 1454.757812 699.609375 " fill-opacity="1" fill-rule="nonzero"/><path fill="#2f3233" d="M 1568.949219 487.003906 C 1568.949219 499.777344 1532.570312 510.128906 1532.570312 510.128906 C 1532.570312 510.128906 1496.191406 499.777344 1496.191406 487.003906 C 1496.191406 474.230469 1512.480469 463.878906 1532.570312 463.878906 C 1552.65625 463.878906 1568.949219 474.25 1568.949219 487.003906 Z M 1568.949219 487.003906 " fill-opacity="1" fill-rule="nonzero"/><path fill="#2f3233" d="M 1372.359375 487.003906 C 1372.359375 499.777344 1335.980469 510.128906 1335.980469 510.128906 C 1335.980469 510.128906 1299.601562 499.777344 1299.601562 487.003906 C 1299.601562 474.230469 1315.894531 463.878906 1335.980469 463.878906 C 1356.066406 463.878906 1372.359375 474.25 1372.359375 487.003906 Z M 1372.359375 487.003906 " fill-opacity="1" fill-rule="nonzero"/><path fill="#2f3233" d="M 1493.617188 607.300781 C 1493.617188 626.6875 1438.410156 642.390625 1438.410156 642.390625 C 1438.410156 642.390625 1383.203125 626.6875 1383.203125 607.300781 C 1383.203125 587.914062 1407.910156 572.210938 1438.410156 572.210938 C 1468.90625 572.210938 1493.617188 587.914062 1493.617188 607.300781 Z M 1493.617188 607.300781 " fill-opacity="1" fill-rule="nonzero"/><path fill="#974923" d="M 1533.058594 1104.550781 C 1525.617188 1111.125 1450.585938 1174.804688 1381.097656 1112.851562 C 1381.433594 1113.714844 1378.9375 1112.683594 1377.113281 1104.980469 C 1371.0625 1079.980469 1372.265625 1053.25 1363 1029.277344 C 1348.214844 990.601562 1308.132812 963.703125 1300.351562 922.957031 C 1332.972656 960.339844 1375.289062 997.53125 1424.710938 993.984375 C 1465.992188 990.957031 1499.140625 960.246094 1528.546875 931.1875 C 1517.648438 964.828125 1517.742188 996.199219 1521.707031 1031.34375 C 1525.503906 1064.632812 1533.320312 1103.515625 1533.058594 1104.550781 Z M 1533.058594 1104.550781 " fill-opacity="1" fill-rule="nonzero"/><path fill="#f4cd9e" d="M 1124.789062 500.546875 C 1133.546875 491.34375 1149.292969 483.453125 1161.46875 479.847656 C 1201.890625 467.863281 1207.75 504.25 1206.230469 511.59375 C 1204.707031 518.9375 1198.808594 525.476562 1191.421875 526.714844 C 1183.359375 528.066406 1174.71875 523.429688 1167.183594 526.546875 C 1153.632812 532.164062 1150.347656 561.75 1130.03125 551.304688 C 1111.128906 541.59375 1113.984375 511.894531 1124.789062 500.546875 Z M 1124.789062 500.546875 " fill-opacity="1" fill-rule="nonzero"/><path fill="#f4cd9e" d="M 1099.085938 497.410156 C 1101.207031 498.125 1104.121094 500.886719 1105.378906 502.726562 C 1106.636719 504.566406 1106.433594 507.554688 1104.457031 508.589844 C 1103.613281 509.039062 1102.597656 509.058594 1101.640625 509.019531 C 1095.910156 508.757812 1089.839844 507.011719 1085.914062 502.820312 C 1078.339844 494.707031 1094.59375 495.925781 1099.085938 497.410156 Z M 1099.085938 497.410156 " fill-opacity="1" fill-rule="nonzero"/><path fill="#f4cd9e" d="M 1123.683594 483.605469 C 1124.695312 484.09375 1125.863281 484.507812 1126.914062 484.113281 C 1127.835938 483.753906 1128.417969 482.851562 1128.8125 481.953125 C 1130.785156 477.441406 1129.375 471.976562 1126.351562 468.089844 C 1123.34375 464.179688 1119.359375 460.460938 1114.550781 459.390625 C 1107.257812 457.71875 1115.46875 479.546875 1123.683594 483.605469 Z M 1123.683594 483.605469 " fill-opacity="1" fill-rule="nonzero"/><path fill="#f4cd9e" d="M 1157.542969 458.789062 C 1158.6875 460.519531 1160.191406 462.152344 1162.164062 462.792969 C 1165.246094 463.785156 1168.761719 462.003906 1170.507812 459.277344 C 1172.257812 456.535156 1172.554688 453.097656 1172.21875 449.867188 C 1171.542969 443.332031 1168.460938 437.054688 1163.667969 432.546875 C 1149.78125 419.4375 1153.597656 452.796875 1157.542969 458.789062 Z M 1157.542969 458.789062 " fill-opacity="1" fill-rule="nonzero"/><path fill="#2f3233" d="M 1503.894531 786.414062 C 1507.425781 773.019531 1511.410156 760.265625 1513.367188 747.171875 C 1514.398438 740.671875 1515.019531 734.042969 1514.925781 727.542969 C 1514.71875 721.042969 1513.855469 714.484375 1510.660156 708.304688 C 1515.941406 712.945312 1518.925781 720.066406 1519.960938 727.054688 C 1521.125 734.136719 1520.75 741.214844 1519.773438 748.167969 C 1517.519531 762.066406 1512.050781 775.21875 1503.894531 786.414062 Z M 1503.894531 786.414062 " fill-opacity="1" fill-rule="nonzero"/><path fill="#2f3233" d="M 1355.390625 794.378906 C 1351.578125 792.441406 1349.226562 788.386719 1347.554688 784.515625 C 1346.035156 780.515625 1344.945312 776.496094 1344.191406 772.34375 C 1342.539062 764.078125 1342.3125 755.550781 1343.160156 747.132812 C 1344.925781 730.378906 1351.425781 713.902344 1362.53125 701.46875 C 1355.84375 716.628906 1351.183594 731.917969 1349.621094 747.808594 C 1348.703125 755.71875 1348.625 763.703125 1349.207031 771.683594 C 1350.1875 779.539062 1349.753906 788.140625 1355.390625 794.378906 Z M 1355.390625 794.378906 " fill-opacity="1" fill-rule="nonzero"/><path fill="#ffffff" d="M 1423.039062 780.757812 C 1468.042969 777.507812 1512.199219 768.210938 1557.242188 765.375 C 1570.039062 764.566406 1587.625 767.910156 1587.230469 778.671875 C 1587.0625 783.070312 1583.550781 786.789062 1580.636719 790.433594 C 1560.4375 815.753906 1573.964844 910.84375 1570.527344 915.164062 C 1568.421875 917.8125 1515.375 920.722656 1489.425781 922.65625 C 1461.296875 924.742188 1424.203125 921.585938 1390.003906 918.675781 C 1370.046875 916.964844 1314.820312 922.996094 1297.253906 906.222656 C 1282.21875 891.871094 1293.492188 844.289062 1296.050781 825.277344 C 1298.210938 809.179688 1295.542969 794.226562 1294.507812 778.261719 C 1293.269531 758.988281 1296.367188 763.964844 1316.230469 770.519531 C 1350.074219 781.699219 1387.109375 783.351562 1423.039062 780.757812 Z M 1423.039062 780.757812 " fill-opacity="1" fill-rule="nonzero"/><path fill="#974923" d="M 1638.886719 1155.566406 C 1627.765625 1149.933594 1620.078125 1138.304688 1617.148438 1126.019531 C 1614.253906 1113.734375 1615.925781 1099.890625 1623.367188 1089.878906 C 1618.179688 1113.679688 1623.574219 1136.613281 1638.886719 1155.566406 Z M 1638.886719 1155.566406 " fill-opacity="1" fill-rule="nonzero"/><path fill="#974923" d="M 1582.984375 1163.644531 C 1573.476562 1158.199219 1567.425781 1147.527344 1565.640625 1136.613281 C 1563.894531 1125.679688 1566.300781 1113.640625 1573.644531 1105.507812 C 1568.386719 1126.171875 1571.503906 1145.6875 1582.984375 1163.644531 Z M 1582.984375 1163.644531 " fill-opacity="1" fill-rule="nonzero"/><path fill="#974923" d="M 1262.46875 1160.675781 C 1264.386719 1147.886719 1268.484375 1135.617188 1272.167969 1123.746094 C 1275.644531 1111.875 1278.648438 1099.945312 1275.097656 1087.660156 L 1275.90625 1087.867188 C 1275.230469 1088.132812 1274.609375 1088.957031 1274.664062 1089.933594 C 1274.253906 1089.070312 1274.382812 1087.8125 1275.285156 1086.964844 L 1275.679688 1086.589844 L 1276.09375 1087.171875 C 1279.871094 1092.5625 1281.710938 1099.4375 1281.65625 1106.144531 C 1281.675781 1112.871094 1280.265625 1119.425781 1278.347656 1125.625 C 1276.375 1131.863281 1273.933594 1137.742188 1271.300781 1143.546875 C 1268.710938 1149.386719 1265.777344 1155.097656 1262.46875 1160.675781 Z M 1262.46875 1160.675781 " fill-opacity="1" fill-rule="nonzero"/><path fill="#974923" d="M 1330.867188 1165.523438 C 1321.023438 1157.839844 1315.273438 1145.386719 1313.902344 1132.839844 C 1312.585938 1120.289062 1315.574219 1106.878906 1323.597656 1097.296875 C 1320.269531 1109.152344 1319.105469 1120.667969 1320.363281 1132.144531 C 1321.53125 1143.640625 1325.117188 1154.648438 1330.867188 1165.523438 Z M 1330.867188 1165.523438 " fill-opacity="1" fill-rule="nonzero"/><path fill="#2f3233" d="M 1314.125 860.761719 C 1312.417969 852.964844 1311.34375 845.078125 1310.949219 837.113281 C 1310.613281 830.367188 1310.539062 823.4375 1312.378906 816.898438 C 1313.242188 813.855469 1314.539062 810.945312 1316.457031 808.410156 C 1316.644531 808.164062 1316.851562 807.921875 1317.058594 807.695312 C 1317.09375 807.65625 1317.433594 807.339844 1317.433594 807.300781 C 1317.488281 807.640625 1316.269531 807.394531 1316.210938 807.375 C 1315.515625 807.113281 1315.703125 807.058594 1315.929688 807.546875 C 1316.023438 807.714844 1316.195312 808.257812 1316.34375 808.652344 C 1317.019531 810.53125 1317.660156 812.410156 1318.277344 814.308594 C 1320.742188 821.804688 1322.75 829.449219 1324.3125 837.1875 C 1326.058594 845.828125 1327.203125 854.582031 1327.789062 863.390625 C 1327.882812 864.914062 1329.007812 866.210938 1330.605469 866.210938 C 1332.054688 866.210938 1333.519531 864.914062 1333.425781 863.390625 C 1332.296875 845.996094 1328.988281 828.734375 1323.523438 812.183594 C 1322.84375 810.15625 1322.167969 808.128906 1321.417969 806.136719 C 1320.609375 804.03125 1319.21875 801.929688 1316.683594 801.929688 C 1314.257812 801.929688 1312.773438 803.976562 1311.476562 805.722656 C 1310.445312 807.152344 1309.558594 808.671875 1308.828125 810.269531 C 1305.6875 817.199219 1305.011719 824.921875 1305.144531 832.453125 C 1305.3125 842.464844 1306.535156 852.476562 1308.675781 862.265625 C 1308.996094 863.75 1310.726562 864.613281 1312.152344 864.238281 C 1313.695312 863.804688 1314.445312 862.246094 1314.125 860.761719 Z M 1314.125 860.761719 " fill-opacity="1" fill-rule="nonzero"/><path fill="#2f3233" d="M 1312.453125 845.246094 C 1312.8125 845.078125 1313.1875 844.90625 1313.542969 844.757812 C 1313.1875 844.90625 1313.996094 844.570312 1313.976562 844.570312 C 1314.632812 844.308594 1315.292969 844.0625 1315.949219 843.820312 C 1317.226562 843.367188 1318.523438 842.972656 1319.839844 842.617188 C 1321.152344 842.277344 1322.46875 841.976562 1323.804688 841.734375 C 1324.105469 841.675781 1324.40625 841.640625 1324.6875 841.582031 C 1324.894531 841.546875 1325.082031 841.527344 1325.289062 841.488281 C 1325.644531 841.433594 1325.683594 841.433594 1325.4375 841.46875 C 1326.132812 841.375 1326.828125 841.300781 1327.523438 841.246094 C 1328.988281 841.113281 1330.417969 840.042969 1330.34375 838.425781 C 1330.285156 837.019531 1329.101562 835.476562 1327.523438 835.609375 C 1321.285156 836.15625 1315.292969 837.75 1309.597656 840.363281 C 1308.246094 840.980469 1307.8125 843.03125 1308.582031 844.210938 C 1309.484375 845.621094 1311.007812 845.902344 1312.453125 845.246094 Z M 1312.453125 845.246094 " fill-opacity="1" fill-rule="nonzero"/><path fill="#2f3233" d="M 1351.914062 805.78125 C 1351.351562 823.738281 1354.058594 841.789062 1359.863281 858.789062 C 1361.667969 858.28125 1363.488281 857.792969 1365.292969 857.285156 C 1363.339844 851.894531 1360.21875 846.957031 1355.972656 843.066406 C 1351.726562 839.160156 1345.132812 835.835938 1339.964844 840.175781 C 1335.828125 843.648438 1335.304688 850.410156 1336.84375 855.257812 C 1338.460938 860.3125 1342.445312 864.40625 1347.835938 865.0625 C 1353.25 865.722656 1358.886719 862.679688 1360.539062 857.363281 C 1361.628906 853.886719 1356.179688 852.402344 1355.109375 855.859375 C 1354.769531 856.929688 1354 857.871094 1352.910156 858.527344 C 1351.6875 859.242188 1350.488281 859.558594 1349.003906 859.523438 C 1348.8125 859.523438 1347.914062 859.410156 1348.324219 859.484375 C 1347.949219 859.429688 1347.574219 859.335938 1347.21875 859.222656 C 1346.632812 859.035156 1345.976562 858.734375 1345.207031 858.132812 C 1344.191406 857.34375 1343.082031 855.785156 1342.59375 854.542969 C 1341.410156 851.59375 1341.109375 847.386719 1343.253906 844.871094 C 1344.378906 843.535156 1345.769531 843.535156 1347.367188 844.042969 C 1349.207031 844.625 1350.789062 845.886719 1352.179688 847.179688 C 1355.617188 850.375 1358.304688 854.375 1359.902344 858.789062 C 1360.425781 860.21875 1361.816406 861.175781 1363.378906 860.761719 C 1364.785156 860.367188 1365.839844 858.734375 1365.351562 857.285156 C 1359.695312 840.71875 1357.0625 823.269531 1357.609375 805.78125 C 1357.683594 802.152344 1352.046875 802.152344 1351.914062 805.78125 Z M 1351.914062 805.78125 " fill-opacity="1" fill-rule="nonzero"/><path fill="#2f3233" d="M 1401.917969 830.3125 C 1399.398438 838.144531 1401.542969 846.523438 1402.648438 854.414062 C 1403.816406 862.640625 1404.699219 870.886719 1405.355469 879.171875 C 1405.730469 883.941406 1406.011719 888.714844 1406.21875 893.484375 C 1406.296875 895.007812 1407.460938 896.300781 1409.039062 896.300781 C 1410.523438 896.300781 1411.933594 895.007812 1411.859375 893.484375 C 1411.5 885.164062 1410.878906 876.859375 1410.015625 868.59375 C 1409.171875 860.5 1407.894531 852.460938 1406.820312 844.402344 C 1406.257812 840.191406 1406.03125 835.910156 1407.347656 831.832031 C 1407.816406 830.386719 1406.804688 828.753906 1405.375 828.359375 C 1403.871094 827.925781 1402.386719 828.867188 1401.917969 830.3125 Z M 1401.917969 830.3125 " fill-opacity="1" fill-rule="nonzero"/><path fill="#2f3233" d="M 1408.984375 843.800781 C 1408.644531 842.617188 1408.644531 841.621094 1409 840.378906 C 1409.320312 839.253906 1409.921875 838.238281 1410.804688 837.394531 C 1412.457031 835.816406 1415.183594 835.554688 1417.210938 836.359375 C 1420.011719 837.488281 1421.175781 840.492188 1421.796875 843.386719 C 1422.550781 846.917969 1422.269531 850.636719 1421.140625 854.039062 C 1420.632812 855.597656 1419.882812 857.230469 1418.585938 858.300781 C 1417.589844 859.109375 1416.253906 859.410156 1415.390625 858.976562 C 1414.039062 858.28125 1412.328125 858.621094 1411.539062 859.992188 C 1410.804688 861.25 1411.179688 863.148438 1412.550781 863.84375 C 1417.382812 866.285156 1422.566406 863.5625 1425.046875 859.148438 C 1427.472656 854.808594 1428.28125 849.417969 1427.679688 844.53125 C 1427.097656 839.722656 1425.367188 834.578125 1420.972656 831.964844 C 1417.230469 829.75 1412.046875 829.671875 1408.417969 832.171875 C 1404.246094 835.046875 1402.21875 840.398438 1403.589844 845.300781 C 1404.511719 848.796875 1409.960938 847.3125 1408.984375 843.800781 Z M 1408.984375 843.800781 " fill-opacity="1" fill-rule="nonzero"/><path fill="#2f3233" d="M 1431.324219 801.382812 C 1430.179688 805.179688 1430.535156 809.085938 1430.929688 812.972656 C 1431.34375 817.070312 1431.757812 821.164062 1432.171875 825.257812 C 1432.996094 833.449219 1433.824219 841.640625 1434.652344 849.828125 C 1435.121094 854.46875 1435.589844 859.109375 1436.058594 863.730469 C 1436.210938 865.25 1437.242188 866.546875 1438.878906 866.546875 C 1440.289062 866.546875 1441.847656 865.25 1441.699219 863.730469 C 1440.0625 847.574219 1438.425781 831.421875 1436.792969 815.285156 C 1436.378906 811.226562 1435.550781 806.867188 1436.753906 802.886719 C 1437.828125 799.410156 1432.378906 797.925781 1431.324219 801.382812 Z M 1431.324219 801.382812 " fill-opacity="1" fill-rule="nonzero"/><path fill="#2f3233" d="M 1413.511719 814.308594 C 1413.566406 814.402344 1413.660156 815.453125 1413.417969 815.433594 C 1413.472656 815.433594 1413.960938 814.945312 1413.980469 814.929688 C 1414.582031 814.515625 1415.597656 814.234375 1416.519531 813.933594 C 1418.566406 813.273438 1420.6875 812.804688 1422.8125 812.46875 C 1426.910156 811.808594 1431.117188 811.789062 1435.253906 812.015625 C 1439.554688 812.242188 1443.839844 812.765625 1448.125 813.386719 C 1452.484375 814.027344 1456.992188 815.117188 1461.425781 815.117188 C 1466.292969 815.132812 1471.238281 812.898438 1472.816406 807.996094 C 1473.285156 806.550781 1472.269531 804.914062 1470.84375 804.519531 C 1469.320312 804.109375 1467.855469 805.027344 1467.367188 806.492188 C 1467.007812 807.601562 1465.84375 808.558594 1464.621094 808.992188 C 1462.648438 809.707031 1460.433594 809.519531 1458.382812 809.253906 C 1453.855469 808.671875 1449.34375 807.863281 1444.816406 807.28125 C 1435.796875 806.117188 1426.53125 805.574219 1417.625 807.753906 C 1415.390625 808.296875 1412.757812 808.898438 1410.84375 810.230469 C 1408.605469 811.789062 1407.027344 814.535156 1408.625 817.144531 C 1410.542969 820.226562 1415.425781 817.40625 1413.511719 814.308594 Z M 1413.511719 814.308594 " fill-opacity="1" fill-rule="nonzero"/><path fill="#2f3233" d="M 1466.125 828.320312 C 1461.578125 825.597656 1455.640625 827.457031 1452.464844 831.402344 C 1449.042969 835.664062 1447.785156 841.789062 1447.652344 847.144531 C 1447.523438 852.441406 1449.609375 858.339844 1454.644531 860.855469 C 1457.273438 862.171875 1460.582031 862.546875 1463.175781 860.929688 C 1465.410156 859.523438 1466.519531 857.042969 1466.894531 854.527344 C 1467.367188 851.351562 1467.402344 848.101562 1467.589844 844.90625 C 1467.796875 841.394531 1468.003906 837.882812 1468.210938 834.371094 C 1466.371094 834.613281 1464.527344 834.878906 1462.667969 835.121094 C 1466.5 846.128906 1470.351562 857.15625 1474.1875 868.164062 C 1474.695312 869.589844 1476.121094 870.550781 1477.664062 870.136719 C 1479.054688 869.761719 1480.144531 868.105469 1479.636719 866.660156 C 1475.800781 855.652344 1471.949219 844.625 1468.117188 833.617188 C 1467.066406 830.613281 1462.761719 831.140625 1462.574219 834.371094 C 1462.292969 839.253906 1462.011719 844.136719 1461.710938 849.039062 C 1461.597656 851.011719 1461.632812 852.949219 1461.128906 854.675781 C 1460.9375 855.351562 1460.828125 855.710938 1460.28125 856.140625 C 1460 856.347656 1459.152344 856.441406 1458.570312 856.347656 C 1455.414062 855.804688 1453.59375 852.253906 1453.367188 849.097656 C 1453.195312 846.9375 1453.441406 844.777344 1453.855469 842.652344 C 1454.210938 840.8125 1454.625 838.914062 1455.453125 837.226562 C 1456.335938 835.421875 1457.445312 834.011719 1459.171875 833.1875 C 1460.582031 832.527344 1462.046875 832.472656 1463.308594 833.222656 C 1466.386719 835.046875 1469.226562 830.179688 1466.125 828.320312 Z M 1466.125 828.320312 " fill-opacity="1" fill-rule="nonzero"/><path fill="#2f3233" d="M 1477.871094 830.40625 C 1480.21875 840.082031 1482.585938 849.734375 1484.933594 859.410156 C 1485.292969 860.894531 1486.964844 861.777344 1488.410156 861.382812 C 1490.007812 860.949219 1490.628906 859.429688 1490.382812 857.90625 C 1489.78125 854.167969 1489.765625 850.242188 1490.382812 846.503906 C 1490.703125 844.589844 1491.171875 842.671875 1491.773438 840.8125 C 1492.074219 839.890625 1492.414062 838.972656 1492.789062 838.070312 C 1493.070312 837.414062 1493.652344 836.566406 1493.824219 835.964844 C 1493.9375 835.535156 1494.332031 835.949219 1493.429688 835.964844 C 1492.601562 835.984375 1492.882812 835.609375 1493.035156 835.984375 C 1493.316406 836.792969 1493.972656 837.582031 1494.347656 838.371094 C 1495.15625 840.003906 1495.796875 841.714844 1496.304688 843.460938 C 1497.394531 847.21875 1497.808594 851.050781 1497.5625 854.957031 C 1499.402344 854.714844 1501.246094 854.449219 1503.105469 854.207031 C 1501.882812 850.316406 1501.660156 846.203125 1502.5625 842.222656 C 1502.992188 840.304688 1503.652344 838.425781 1504.570312 836.679688 C 1505.398438 835.101562 1506.414062 833.316406 1507.898438 832.265625 C 1508.5 831.832031 1509.023438 831.628906 1509.683594 831.703125 C 1510.152344 831.757812 1509.308594 831.609375 1509.757812 831.722656 C 1509.832031 831.738281 1510.359375 831.910156 1510.058594 831.796875 C 1509.796875 831.703125 1510.941406 832.378906 1510.527344 832.039062 C 1511.28125 832.621094 1511.335938 832.773438 1511.804688 833.5625 C 1512.3125 834.40625 1512.445312 834.726562 1512.726562 835.554688 C 1514.15625 839.796875 1514.417969 844.589844 1514.699219 849.023438 C 1515.058594 854.75 1514.945312 860.5 1514.378906 866.210938 C 1514.230469 867.730469 1515.789062 869.027344 1517.199219 869.027344 C 1518.851562 869.027344 1519.867188 867.730469 1520.015625 866.210938 C 1520.601562 860.347656 1520.710938 854.449219 1520.316406 848.570312 C 1520.113281 845.601562 1519.773438 842.652344 1519.359375 839.722656 C 1519.023438 837.394531 1518.644531 835.082031 1517.742188 832.90625 C 1515.976562 828.621094 1512.03125 824.714844 1507.015625 826.480469 C 1502.109375 828.226562 1499.273438 833.882812 1497.769531 838.519531 C 1495.984375 844.042969 1495.964844 850.167969 1497.710938 855.691406 C 1498.691406 858.769531 1503.066406 858.113281 1503.257812 854.9375 C 1503.480469 851.050781 1503.105469 847.125 1502.167969 843.347656 C 1501.28125 839.796875 1499.910156 835.855469 1497.75 832.867188 C 1496.453125 831.082031 1494.519531 829.9375 1492.261719 830.5 C 1490.273438 830.988281 1489.070312 832.828125 1488.261719 834.578125 C 1486.625 838.164062 1485.441406 841.941406 1484.859375 845.847656 C 1484.183594 850.394531 1484.238281 854.882812 1484.992188 859.429688 C 1486.796875 858.921875 1488.617188 858.433594 1490.421875 857.925781 C 1488.074219 848.25 1485.707031 838.597656 1483.355469 828.921875 C 1482.453125 825.390625 1477.003906 826.894531 1477.871094 830.40625 Z M 1477.871094 830.40625 " fill-opacity="1" fill-rule="nonzero"/><path fill="#2f3233" d="M 1524.074219 852.683594 C 1527.535156 855.296875 1532.175781 854.84375 1535.894531 853.117188 C 1539.390625 851.484375 1542.226562 848.402344 1543.84375 844.90625 C 1547.152344 837.789062 1546.511719 829.015625 1541.402344 822.890625 C 1539.617188 820.75 1536.855469 819.980469 1534.375 821.484375 C 1532.417969 822.667969 1530.992188 824.882812 1529.769531 826.761719 C 1527.402344 830.445312 1525.75 834.726562 1525.089844 839.066406 C 1524.394531 843.667969 1524.453125 848.4375 1526.40625 852.742188 C 1528.003906 856.292969 1531.046875 858.941406 1534.582031 860.441406 C 1538.433594 862.078125 1542.734375 862.507812 1546.871094 862.152344 C 1550.851562 861.8125 1557.785156 860.742188 1557.410156 855.296875 C 1557.296875 853.773438 1556.191406 852.476562 1554.59375 852.476562 C 1553.144531 852.476562 1551.660156 853.773438 1551.773438 855.296875 C 1551.8125 855.820312 1551.941406 855.351562 1551.90625 855.203125 C 1551.867188 855.03125 1552.148438 855.109375 1551.847656 855.277344 C 1551.867188 855.257812 1551.492188 855.558594 1551.679688 855.425781 C 1551.359375 855.652344 1550.890625 855.820312 1550.234375 855.992188 C 1548.765625 856.367188 1547.789062 856.460938 1546.382812 856.574219 C 1543.449219 856.78125 1541.007812 856.648438 1538.320312 855.859375 C 1536.949219 855.445312 1536.175781 855.125 1534.9375 854.320312 C 1534.128906 853.792969 1533.058594 852.835938 1532.53125 852.121094 C 1530.632812 849.527344 1530.222656 846.296875 1530.332031 843.160156 C 1530.445312 839.890625 1531.199219 836.605469 1532.511719 833.597656 C 1533.226562 831.984375 1534.09375 830.445312 1535.085938 828.996094 C 1535.5 828.394531 1535.933594 827.796875 1536.421875 827.230469 C 1536.667969 826.949219 1536.949219 826.6875 1537.210938 826.40625 C 1537.265625 826.347656 1537.324219 826.40625 1537.398438 826.292969 C 1537.757812 825.746094 1536.667969 826.648438 1536.722656 826.199219 C 1536.722656 826.21875 1537.605469 827.136719 1537.679688 827.25 C 1538.074219 827.8125 1538.453125 828.414062 1538.769531 829.035156 C 1539.335938 830.125 1539.746094 831.363281 1540.03125 832.753906 C 1540.179688 833.449219 1540.199219 833.617188 1540.253906 834.40625 C 1540.3125 835.160156 1540.3125 835.910156 1540.273438 836.660156 C 1540.21875 837.976562 1540.011719 839.066406 1539.558594 840.511719 C 1538.753906 843.140625 1537.078125 845.828125 1534.691406 847.367188 C 1533.492188 848.140625 1531.929688 848.777344 1530.765625 848.910156 C 1529.1875 849.058594 1528.230469 848.832031 1526.914062 847.839844 C 1525.691406 846.917969 1523.757812 847.652344 1523.0625 848.851562 C 1522.214844 850.261719 1522.855469 851.765625 1524.074219 852.683594 Z M 1524.074219 852.683594 " fill-opacity="1" fill-rule="nonzero"/><path fill="#2f3233" d="M 1379.3125 861.8125 C 1381.339844 864.351562 1385.230469 864.03125 1386.902344 861.25 C 1389.515625 856.875 1391.976562 851.765625 1393.328125 848.589844 C 1396.015625 842.335938 1399.773438 837.148438 1395.546875 831.816406 C 1392.972656 828.566406 1386.078125 830.085938 1384.292969 832.960938 C 1382.507812 835.835938 1381.886719 837.335938 1381.433594 840.644531 C 1380.457031 838.464844 1378.746094 836.398438 1375.648438 833.503906 C 1373.84375 831.816406 1371.570312 830.21875 1369.128906 830.574219 C 1366.195312 830.988281 1364.316406 834.199219 1364.371094 837.148438 C 1364.449219 840.097656 1366.082031 842.746094 1367.546875 845.320312 C 1370.613281 850.601562 1375.742188 857.34375 1379.3125 861.8125 Z M 1379.3125 861.8125 " fill-opacity="1" fill-rule="nonzero"/><path fill="#974923" d="M 1650.5 974.710938 L 1647.382812 896.847656 C 1647.382812 896.847656 1719.03125 890.628906 1715.910156 819.003906 C 1715.910156 819.003906 1793.800781 940.445312 1650.5 974.710938 Z M 1650.5 974.710938 " fill-opacity="1" fill-rule="nonzero"/></svg>