<svg xmlns="http://www.w3.org/2000/svg" xmlns:xlink="http://www.w3.org/1999/xlink" width="3780" zoomAndPan="magnify" viewBox="0 0 2835 1417.499962" height="1890" preserveAspectRatio="xMidYMid meet" version="1.0"><defs><clipPath id="d8398a9855"><path d="M 1021 197.402344 L 1813.8125 197.402344 L 1813.8125 1175 L 1021 1175 Z M 1021 197.402344 " clip-rule="nonzero"/></clipPath><clipPath id="2e20d3f621"><path d="M 1221 535 L 1613 535 L 1613 1219.292969 L 1221 1219.292969 Z M 1221 535 " clip-rule="nonzero"/></clipPath></defs><g clip-path="url(#d8398a9855)"><path fill="#323232" d="M 1232.53125 469.757812 L 1359.796875 319.484375 L 1361.351562 320.8125 L 1234.082031 471.085938 Z M 1066.765625 829.65625 L 1271.984375 587.367188 L 1270.433594 586.039062 L 1065.191406 828.347656 Z M 1258.136719 813.601562 L 1052.917969 1055.886719 L 1054.472656 1057.214844 L 1259.691406 814.929688 Z M 1193.566406 1111.242188 L 1195.117188 1112.570312 L 1400.335938 870.28125 L 1398.785156 868.953125 Z M 1226.339844 387.585938 L 1021.121094 629.871094 L 1022.675781 631.199219 L 1227.894531 388.890625 Z M 1624.566406 773.628906 L 1780.957031 588.980469 L 1779.40625 587.652344 L 1623.015625 772.300781 Z M 1735.621094 832.167969 L 1596.628906 996.285156 L 1598.183594 997.613281 L 1737.171875 833.496094 Z M 1811.734375 934.742188 L 1609.558594 1173.457031 L 1611.109375 1174.785156 L 1813.285156 936.070312 Z M 1623.710938 629.363281 L 1623.710938 641.515625 C 1623.710938 644.3125 1625.996094 646.601562 1628.796875 646.601562 C 1631.59375 646.601562 1633.878906 644.332031 1633.878906 641.515625 L 1633.878906 596.457031 L 1631.835938 596.457031 L 1631.835938 641.515625 C 1631.835938 643.191406 1630.46875 644.558594 1628.796875 644.558594 C 1627.121094 644.558594 1625.753906 643.191406 1625.753906 641.515625 L 1625.753906 629.363281 Z M 1665.085938 258.292969 L 1537.816406 408.5625 L 1539.367188 409.890625 L 1666.636719 259.617188 Z M 1351.957031 198.710938 L 1350.382812 197.402344 L 1225.546875 347.796875 L 1227.117188 349.101562 Z M 1602.675781 1152.03125 L 1604.859375 1168.902344 L 1606.882812 1168.636719 L 1604.695312 1151.765625 Z M 1618.585938 1170.167969 L 1618.398438 1171.167969 L 1618.09375 1172.148438 C 1618.195312 1172.171875 1618.296875 1172.191406 1618.421875 1172.191406 C 1621.054688 1172.191406 1630.859375 1166.289062 1638.800781 1161.203125 L 1637.699219 1159.484375 C 1629.511719 1164.734375 1620.09375 1170.167969 1618.585938 1170.167969 Z M 1707.152344 408.5625 L 1579.722656 559.015625 L 1581.273438 560.34375 L 1708.707031 409.890625 Z M 1541.105469 218.6875 L 1444.507812 332.742188 L 1446.058594 334.070312 L 1542.65625 220.015625 Z M 1541.105469 218.6875 " fill-opacity="1" fill-rule="nonzero"/></g><path fill="#ffb78f" d="M 1323.835938 1071.167969 C 1323.917969 1069.449219 1323.835938 911.949219 1323.835938 911.949219 L 1434.113281 911.949219 L 1397.3125 1066.386719 Z M 1565.363281 1076.3125 L 1554.726562 911.949219 C 1554.726562 911.949219 1450.023438 914.238281 1446.570312 915.257812 C 1443.121094 916.28125 1493.664062 1066.386719 1496.238281 1066.386719 M 1171.324219 608.8125 C 1171.324219 603.5625 1167.078125 599.316406 1161.828125 599.316406 L 1158.601562 599.316406 C 1153.355469 599.316406 1149.105469 603.5625 1149.105469 608.8125 C 1149.105469 614.0625 1153.355469 618.3125 1158.601562 618.3125 L 1161.828125 618.3125 C 1167.078125 618.292969 1171.324219 614.042969 1171.324219 608.8125 Z M 1171.324219 608.8125 " fill-opacity="1" fill-rule="nonzero"/><path fill="#ffcc31" d="M 1272.394531 926.472656 L 1309.273438 653.769531 L 1260.304688 515.835938 L 1289.21875 449.617188 C 1298.429688 428.519531 1315.707031 411.972656 1337.171875 403.660156 L 1353.140625 397.492188 C 1345.890625 383.273438 1341.828125 367.648438 1341.214844 351.695312 C 1340.886719 343.058594 1340.621094 332.355469 1340.621094 319.8125 L 1340.582031 315.15625 C 1340.582031 275.652344 1372.601562 243.605469 1412.121094 243.605469 C 1444.179688 243.605469 1471.300781 264.703125 1480.390625 293.769531 L 1502.117188 396.082031 L 1509.53125 398.53125 C 1539.917969 408.582031 1564.589844 431.113281 1577.332031 460.484375 L 1629.429688 580.441406 C 1638.617188 601.582031 1628.609375 626.15625 1607.289062 634.898438 L 1561.179688 653.769531 L 1598.058594 926.472656 Z M 1272.394531 926.472656 " fill-opacity="1" fill-rule="nonzero"/><path fill="#ff7828" d="M 1348.894531 319.792969 L 1348.871094 316.523438 C 1348.871094 289.132812 1370.804688 266.890625 1398.070312 266.359375 C 1426.191406 265.828125 1449.207031 289.523438 1449.207031 317.648438 L 1449.207031 370.488281 C 1449.207031 374.390625 1446.039062 377.578125 1442.117188 377.578125 L 1428.191406 386.625 Z M 1348.894531 319.792969 " fill-opacity="1" fill-rule="nonzero"/><path fill="#323232" d="M 1503.976562 593.289062 L 1503.546875 592.371094 C 1499.117188 594.1875 1492.664062 596.945312 1485.738281 599.96875 C 1482.738281 601.277344 1477.019531 599.4375 1473.957031 600.785156 C 1472.445312 601.441406 1473.570312 605.300781 1472.097656 605.953125 C 1459.621094 611.46875 1448.835938 616.289062 1448.835938 616.289062 L 1427.90625 664.308594 L 1399.722656 661.347656 C 1399.109375 687.351562 1398.539062 713.78125 1397.988281 739.722656 C 1403.09375 725.402344 1411.464844 702.160156 1412.179688 701.320312 C 1413.222656 700.09375 1403.828125 677.421875 1406.054688 679.097656 L 1440.078125 662.859375 L 1445.53125 693.089844 C 1446.957031 700.996094 1445.40625 709.164062 1441.160156 716.007812 L 1424.1875 743.378906 C 1419.796875 750.445312 1411.527344 754.101562 1403.335938 752.570312 C 1400.886719 752.097656 1398.925781 750.585938 1397.804688 748.605469 C 1396.375 818.480469 1395.332031 883.964844 1395.332031 926.511719 L 1393.289062 926.511719 C 1393.289062 866.398438 1395.351562 760.515625 1397.660156 661.164062 L 1367.070312 657.957031 C 1323.039062 672.664062 1278.335938 671.132812 1253.890625 668.578125 C 1259.792969 690.660156 1282.765625 731.511719 1282.765625 731.511719 C 1288.425781 729.160156 1294.9375 730.46875 1299.246094 734.820312 L 1309.683594 745.296875 L 1278.683594 758.289062 L 1241.679688 716.066406 C 1238.59375 712.554688 1238.1875 707.449219 1240.636719 703.484375 C 1240.636719 703.484375 1235.492188 693.90625 1229.464844 682.855469 C 1222.011719 715.167969 1235.859375 735.207031 1246.722656 745.398438 C 1253.769531 751.996094 1257.914062 761.128906 1257.914062 770.789062 L 1225.523438 773.015625 L 1197.628906 714.414062 C 1196.28125 711.246094 1197.425781 707.550781 1200.304688 705.671875 C 1203.816406 656.546875 1160.972656 617.390625 1160.972656 617.390625 C 1158.929688 613.207031 1155.519531 605.8125 1151.292969 596.457031 C 1147.757812 588.613281 1145.59375 580.667969 1144.613281 572.804688 C 1137.8125 603.953125 1131.175781 641.945312 1128.886719 679.261719 C 1127.988281 693.925781 1115.960938 705.40625 1101.277344 705.40625 C 1101.277344 642.660156 1117.003906 572.621094 1127.296875 533.484375 C 1132.074219 515.347656 1148.453125 502.703125 1167.199219 502.703125 L 1170.835938 502.703125 C 1187.746094 487.28125 1211.25 478.742188 1237.226562 482.542969 L 1401.5 506.664062 C 1402.828125 456.277344 1403.808594 422.511719 1403.828125 421.410156 L 1405.871094 421.472656 C 1405.828125 422.574219 1404.871094 456.460938 1403.542969 506.972656 L 1407.605469 507.5625 C 1408.320312 504.582031 1409.097656 501.925781 1409.832031 499.617188 C 1411.730469 493.613281 1415.488281 488.34375 1420.59375 484.648438 C 1438.769531 471.472656 1456.882812 465.058594 1471.667969 462.054688 C 1490.292969 458.257812 1509.226562 466.898438 1518.742188 483.359375 L 1524.867188 493.980469 L 1546.453125 493.367188 L 1553.867188 499.945312 C 1561.074219 499.742188 1566.46875 498.128906 1567.652344 505.234375 L 1569.898438 518.777344 C 1571.429688 527.929688 1568.324219 537.222656 1561.628906 543.617188 C 1548.25 556.421875 1525.398438 577.707031 1511.429688 587.613281 L 1570.285156 560.691406 L 1571.144531 562.550781 Z M 1503.976562 593.289062 " fill-opacity="1" fill-rule="nonzero"/><g clip-path="url(#2e20d3f621)"><path fill="#2498d4" d="M 1485.761719 599.96875 C 1481.269531 601.929688 1476.589844 603.972656 1472.140625 605.953125 C 1435.132812 582.609375 1418.449219 550.417969 1412.222656 535.140625 C 1416.714844 540.859375 1423.351562 544.863281 1431.050781 545.863281 C 1440.464844 562.203125 1457.375 584.097656 1485.761719 599.96875 Z M 1412.792969 1058.5625 L 1309.132812 1058.5625 C 1309.132812 1058.5625 1308.96875 1076.886719 1305.027344 1108.890625 C 1299.269531 1133.566406 1281.113281 1153.808594 1256.851562 1162.449219 C 1255.851562 1162.816406 1254.890625 1163.164062 1253.972656 1163.488281 C 1232.121094 1171.699219 1218.4375 1193.738281 1221.6875 1216.863281 C 1221.910156 1218.476562 1222.113281 1219.351562 1222.113281 1219.351562 L 1415.101562 1219.351562 C 1415.101562 1159.300781 1398.171875 1166.1875 1399.335938 1132.503906 C 1399.519531 1127.355469 1400.664062 1119.125 1402.480469 1108.914062 Z M 1612.660156 1219.332031 C 1613.171875 1176.910156 1582.027344 1162.652344 1577.660156 1142.429688 C 1576.863281 1138.691406 1574.023438 1076.089844 1573.1875 1058.5625 L 1478.777344 1058.5625 C 1481.003906 1067.347656 1496.15625 1124.679688 1496.953125 1129.132812 C 1502.628906 1160.8125 1471.769531 1170.433594 1471.769531 1219.332031 Z M 1612.660156 1219.332031 " fill-opacity="1" fill-rule="nonzero"/></g><path fill="#ffb78f" d="M 1383.734375 388.277344 C 1366.089844 388.523438 1351.324219 374.960938 1350.078125 357.375 C 1349.261719 345.976562 1348.667969 332.703125 1348.894531 319.792969 C 1349.242188 299.101562 1366.332031 282.167969 1387.042969 282.167969 L 1389.53125 291.035156 C 1394.742188 309.457031 1411.730469 322.058594 1430.886719 321.671875 C 1437.277344 321.550781 1442.976562 325.65625 1444.894531 331.761719 C 1446.164062 335.847656 1445.550781 340.277344 1443.222656 343.875 C 1439.976562 348.941406 1434.683594 355.84375 1428.171875 359.582031 L 1428.3125 364.238281 C 1428.558594 371.695312 1434.644531 377.597656 1442.097656 377.597656 L 1404.890625 421.429688 L 1391.453125 400.410156 L 1393.3125 394.367188 Z M 1228.160156 681.628906 L 1230.058594 682.40625 L 1257.054688 616.105469 L 1255.15625 615.328125 Z M 1464.050781 489.671875 L 1462.03125 489.894531 C 1462.621094 495.328125 1466.828125 504.703125 1474.570312 517.734375 C 1477.9375 523.394531 1477.980469 530.195312 1474.734375 535.914062 C 1471.464844 541.65625 1465.582031 545.085938 1458.988281 545.085938 L 1434.765625 545.085938 C 1426.414062 545.085938 1418.59375 541.367188 1413.304688 534.894531 C 1408.074219 528.480469 1406.035156 520.1875 1407.6875 512.121094 C 1407.992188 510.609375 1408.320312 509.179688 1408.667969 507.789062 L 1406.6875 507.300781 C 1406.339844 508.707031 1406.011719 510.179688 1405.707031 511.691406 C 1403.929688 520.351562 1406.136719 529.277344 1411.75 536.160156 C 1417.429688 543.125 1425.824219 547.109375 1434.789062 547.109375 L 1459.007812 547.109375 C 1466.339844 547.109375 1472.894531 543.289062 1476.53125 536.914062 C 1480.164062 530.542969 1480.082031 522.984375 1476.347656 516.675781 C 1468.832031 504.09375 1464.582031 494.757812 1464.050781 489.671875 Z M 1169.304688 505.582031 L 1167.875 504.132812 C 1144.878906 526.785156 1137.117188 559.546875 1147.59375 589.675781 L 1149.515625 589 C 1139.304688 559.628906 1146.878906 527.664062 1169.304688 505.582031 Z M 1567.714844 505.214844 C 1566.527344 498.105469 1560.28125 492.960938 1553.070312 493.164062 L 1546.515625 493.347656 C 1547.945312 500.945312 1554.601562 506.707031 1562.609375 506.707031 C 1564.425781 506.707031 1566.183594 506.398438 1567.835938 505.847656 Z M 1211.496094 617.617188 C 1211.023438 617.25 1210.535156 616.941406 1210.023438 616.71875 L 1210.496094 616.25 C 1213.167969 613.59375 1213.332031 609.324219 1210.863281 606.484375 C 1209.351562 604.75 1207.164062 603.953125 1205.042969 604.074219 C 1207.289062 601.625 1207.613281 597.90625 1205.632812 595.109375 C 1203.367188 591.902344 1198.957031 591.125 1195.730469 593.351562 L 1161.054688 617.351562 C 1161.054688 617.351562 1156.988281 626.953125 1166.8125 649.5625 C 1176.65625 672.171875 1193.726562 670.089844 1193.726562 670.089844 L 1211.3125 644.804688 C 1213.457031 641.71875 1212.84375 637.472656 1209.902344 635.121094 C 1209.351562 634.691406 1208.757812 634.34375 1208.144531 634.101562 L 1212.882812 627.277344 C 1215.046875 624.195312 1214.4375 619.964844 1211.496094 617.617188 Z M 1422.820312 617.945312 C 1412.363281 618.617188 1402.296875 622.089844 1393.65625 628.015625 L 1378.28125 638.53125 C 1375.441406 640.472656 1374.296875 644.089844 1375.503906 647.316406 C 1376.707031 650.523438 1379.914062 652.503906 1383.304688 652.136719 L 1367.128906 657.894531 C 1367.210938 661.675781 1368.925781 665.128906 1371.644531 667.476562 C 1372.03125 673.441406 1376.402344 678.484375 1382.34375 679.382812 C 1383.40625 679.546875 1384.550781 679.628906 1385.753906 679.648438 C 1387.675781 682.507812 1390.675781 684.59375 1394.269531 685.144531 C 1395.269531 685.308594 1396.375 685.367188 1397.519531 685.410156 C 1399.519531 688.800781 1402.96875 691.25 1407.09375 691.660156 C 1409.710938 691.925781 1412.730469 691.824219 1416.140625 691.027344 C 1448.757812 678.199219 1463.703125 652.117188 1463.703125 652.117188 L 1448.859375 616.25 Z M 1422.820312 617.945312 " fill-opacity="1" fill-rule="nonzero"/><path fill="#323232" d="M 1391.492188 400.390625 L 1383.753906 388.277344 L 1403.296875 388.277344 C 1405.214844 388.277344 1405.972656 390.769531 1404.378906 391.855469 Z M 1561.546875 654.710938 L 1560.769531 652.808594 L 1478.960938 686.289062 L 1464.664062 651.75 L 1462.785156 652.523438 L 1477.855469 688.941406 Z M 1399.191406 1187.222656 C 1394.679688 1187.222656 1390.492188 1185.425781 1387.367188 1182.179688 C 1383.855469 1178.523438 1379.136719 1176.5 1374.074219 1176.5 C 1369.007812 1176.5 1364.269531 1178.523438 1360.777344 1182.179688 C 1357.652344 1185.425781 1353.46875 1187.222656 1348.953125 1187.222656 C 1344.441406 1187.222656 1340.253906 1185.425781 1337.128906 1182.179688 C 1333.617188 1178.523438 1328.898438 1176.5 1323.835938 1176.5 C 1318.769531 1176.5 1314.035156 1178.523438 1310.542969 1182.179688 C 1307.417969 1185.425781 1303.230469 1187.222656 1298.71875 1187.222656 C 1294.203125 1187.222656 1290.015625 1185.425781 1286.894531 1182.179688 C 1283.378906 1178.523438 1278.664062 1176.5 1273.597656 1176.5 C 1268.535156 1176.5 1263.796875 1178.523438 1260.304688 1182.179688 C 1257.179688 1185.425781 1252.992188 1187.222656 1248.480469 1187.222656 C 1243.964844 1187.222656 1239.78125 1185.425781 1236.65625 1182.179688 L 1233.0625 1178.421875 L 1231.589844 1179.828125 L 1235.183594 1183.589844 C 1238.695312 1187.246094 1243.414062 1189.265625 1248.480469 1189.265625 C 1253.542969 1189.265625 1258.28125 1187.246094 1261.773438 1183.589844 C 1264.898438 1180.339844 1269.085938 1178.542969 1273.597656 1178.542969 C 1278.109375 1178.542969 1282.296875 1180.339844 1285.421875 1183.589844 C 1288.933594 1187.246094 1293.652344 1189.265625 1298.71875 1189.265625 C 1303.78125 1189.265625 1308.519531 1187.246094 1312.011719 1183.589844 C 1315.136719 1180.320312 1319.324219 1178.542969 1323.835938 1178.542969 C 1328.347656 1178.542969 1332.535156 1180.339844 1335.660156 1183.589844 C 1339.171875 1187.246094 1343.890625 1189.265625 1348.953125 1189.265625 C 1354.019531 1189.265625 1358.757812 1187.246094 1362.25 1183.589844 C 1365.375 1180.339844 1369.558594 1178.542969 1374.074219 1178.542969 C 1378.585938 1178.542969 1382.773438 1180.339844 1385.898438 1183.589844 C 1389.410156 1187.246094 1394.128906 1189.265625 1399.191406 1189.265625 C 1404.257812 1189.265625 1408.996094 1187.246094 1412.488281 1183.589844 L 1411.015625 1182.179688 C 1407.914062 1185.425781 1403.707031 1187.222656 1399.191406 1187.222656 Z M 1601.183594 1178.585938 C 1599.386719 1179.523438 1597.773438 1180.730469 1596.40625 1182.179688 C 1593.28125 1185.425781 1589.09375 1187.222656 1584.582031 1187.222656 C 1580.070312 1187.222656 1575.882812 1185.425781 1572.757812 1182.179688 C 1569.246094 1178.523438 1564.527344 1176.5 1559.460938 1176.5 C 1554.398438 1176.5 1549.660156 1178.523438 1546.167969 1182.179688 C 1543.042969 1185.425781 1538.855469 1187.222656 1534.34375 1187.222656 C 1529.832031 1187.222656 1525.644531 1185.425781 1522.519531 1182.179688 C 1519.007812 1178.523438 1514.289062 1176.5 1509.226562 1176.5 C 1504.160156 1176.5 1499.421875 1178.523438 1495.929688 1182.179688 C 1491.253906 1187.0625 1483.941406 1188.570312 1477.714844 1185.9375 L 1476.917969 1187.816406 C 1483.921875 1190.777344 1492.152344 1189.082031 1497.402344 1183.589844 C 1500.527344 1180.339844 1504.710938 1178.542969 1509.226562 1178.542969 C 1513.738281 1178.542969 1517.925781 1180.339844 1521.050781 1183.589844 C 1524.5625 1187.246094 1529.28125 1189.265625 1534.34375 1189.265625 C 1539.410156 1189.265625 1544.125 1187.246094 1547.636719 1183.589844 C 1550.761719 1180.339844 1554.949219 1178.542969 1559.460938 1178.542969 C 1563.976562 1178.542969 1568.164062 1180.339844 1571.285156 1183.589844 C 1574.800781 1187.246094 1579.515625 1189.265625 1584.582031 1189.265625 C 1589.644531 1189.265625 1594.363281 1187.246094 1597.875 1183.589844 C 1599.101562 1182.300781 1600.53125 1181.238281 1602.125 1180.402344 Z M 1559.625 1107.011719 L 1559.625 1100.273438 C 1559.625 1097.3125 1557.320312 1094.941406 1554.359375 1094.839844 L 1554.296875 1096.882812 C 1556.132812 1096.941406 1557.585938 1098.433594 1557.585938 1100.273438 L 1557.585938 1107.011719 C 1557.585938 1110.015625 1560.015625 1112.445312 1563.015625 1112.445312 C 1566.019531 1112.445312 1568.449219 1110.015625 1568.449219 1107.011719 L 1568.449219 1086.914062 L 1566.40625 1086.914062 L 1566.40625 1107.011719 C 1566.40625 1108.890625 1564.894531 1110.402344 1563.015625 1110.402344 C 1561.136719 1110.402344 1559.625 1108.890625 1559.625 1107.011719 Z M 1314.746094 1134.242188 C 1313.972656 1133.28125 1313.664062 1132.015625 1313.929688 1130.808594 L 1311.929688 1130.378906 C 1311.519531 1132.199219 1311.96875 1134.078125 1313.132812 1135.527344 C 1314.296875 1136.976562 1316.035156 1137.816406 1317.914062 1137.816406 C 1320.773438 1137.816406 1323.285156 1135.792969 1323.898438 1132.996094 L 1326.410156 1121.578125 L 1324.40625 1121.148438 L 1321.894531 1132.566406 C 1321.488281 1134.425781 1319.8125 1135.773438 1317.914062 1135.773438 C 1316.6875 1135.773438 1315.523438 1135.199219 1314.746094 1134.242188 Z M 1482.921875 449.167969 C 1483.902344 449.84375 1485.003906 450.167969 1486.167969 450.167969 C 1486.558594 450.167969 1486.964844 450.128906 1487.351562 450.046875 C 1490.292969 449.433594 1492.296875 446.636719 1491.90625 443.652344 L 1491.355469 439.382812 C 1491.089844 437.382812 1492.457031 435.5625 1494.441406 435.238281 L 1498.75 434.523438 L 1498.421875 432.5 L 1494.113281 433.214844 C 1491.027344 433.726562 1488.925781 436.542969 1489.335938 439.648438 L 1489.886719 443.917969 C 1490.128906 445.839844 1488.84375 447.65625 1486.945312 448.042969 C 1485.945312 448.25 1484.921875 448.042969 1484.085938 447.472656 C 1483.25 446.902344 1482.695312 446.023438 1482.511719 445.019531 C 1479.367188 426.453125 1477.46875 414.953125 1477.40625 414.261719 L 1476.386719 414.320312 L 1475.367188 414.320312 C 1475.367188 414.503906 1475.367188 414.953125 1480.492188 445.367188 C 1480.757812 446.921875 1481.613281 448.269531 1482.921875 449.167969 Z M 1309.601562 474.148438 C 1309.949219 474.210938 1310.316406 474.25 1310.664062 474.25 C 1311.726562 474.25 1312.789062 473.945312 1313.6875 473.332031 C 1314.890625 472.515625 1315.726562 471.289062 1315.972656 469.980469 L 1318.261719 463.34375 L 1316.320312 462.667969 L 1314.011719 469.429688 C 1313.828125 470.328125 1313.320312 471.105469 1312.5625 471.59375 C 1311.808594 472.105469 1310.886719 472.289062 1310.011719 472.105469 C 1308.171875 471.738281 1306.96875 469.941406 1307.335938 468.101562 L 1309.621094 456.582031 L 1307.621094 456.195312 L 1305.332031 467.714844 C 1304.722656 470.675781 1306.640625 473.554688 1309.601562 474.148438 Z M 1535.652344 423.226562 L 1529.238281 413.75 L 1527.542969 414.894531 L 1533.957031 424.371094 Z M 1550.621094 414.953125 L 1549.027344 413.667969 L 1541.367188 423.144531 L 1542.960938 424.433594 Z M 1214.128906 466.550781 C 1214.230469 466.671875 1225.257812 479.4375 1227.363281 488.28125 L 1229.34375 487.8125 C 1227.136719 478.476562 1216.128906 465.753906 1215.660156 465.203125 Z M 1256.648438 468.53125 L 1255.523438 466.816406 C 1245.558594 473.332031 1240.679688 485.097656 1240.472656 485.585938 L 1242.371094 486.363281 C 1242.414062 486.238281 1247.210938 474.699219 1256.648438 468.53125 Z M 1383.40625 653.15625 C 1387.367188 652.75 1393.332031 651.460938 1399.210938 647.746094 L 1398.109375 646.027344 C 1392.574219 649.542969 1386.9375 650.746094 1383.101562 651.15625 C 1377.851562 652.15625 1368.3125 648.601562 1368.210938 648.5625 L 1367.496094 650.480469 C 1367.863281 650.625 1375.277344 653.382812 1380.976562 653.382812 C 1381.855469 653.363281 1382.671875 653.300781 1383.40625 653.15625 Z M 1370.664062 667.988281 C 1371.253906 674.320312 1375.933594 679.464844 1382.179688 680.425781 C 1383.160156 680.570312 1384.160156 680.648438 1385.164062 680.691406 C 1387.308594 683.652344 1390.535156 685.65625 1394.105469 686.207031 C 1395.414062 686.410156 1396.761719 686.511719 1398.128906 686.511719 C 1399.886719 686.511719 1401.703125 686.347656 1403.523438 686 L 1403.152344 684 C 1400.152344 684.550781 1397.210938 684.613281 1394.414062 684.183594 C 1391.882812 683.796875 1389.554688 682.53125 1387.777344 680.671875 C 1390.371094 680.527344 1393.023438 680.058594 1395.71875 679.199219 L 1395.109375 677.257812 C 1390.71875 678.628906 1386.46875 679.035156 1382.464844 678.425781 C 1377.8125 677.710938 1374.195312 674.257812 1373.011719 669.785156 C 1374.441406 670.601562 1376.011719 671.171875 1377.707031 671.4375 C 1379.035156 671.644531 1380.363281 671.746094 1381.730469 671.746094 C 1384.816406 671.746094 1388 671.234375 1391.25 670.214844 L 1390.636719 668.273438 C 1386.246094 669.660156 1381.996094 670.050781 1377.996094 669.4375 C 1375.933594 669.128906 1374.09375 668.273438 1372.542969 667.046875 C 1372.542969 667.007812 1372.542969 666.984375 1372.519531 666.945312 L 1372.398438 666.945312 C 1369.804688 664.800781 1368.152344 661.550781 1368.070312 657.9375 L 1366.027344 657.976562 C 1366.191406 661.921875 1367.925781 665.496094 1370.664062 667.988281 Z M 1212.128906 616.820312 C 1211.964844 616.699219 1211.78125 616.617188 1211.597656 616.492188 C 1214.230469 613.449219 1214.3125 608.875 1211.617188 605.789062 C 1210.390625 604.382812 1208.738281 603.460938 1206.941406 603.136719 C 1208.390625 600.480469 1208.289062 597.109375 1206.449219 594.496094 L 1204.777344 595.679688 C 1206.371094 597.949219 1206.226562 600.949219 1204.550781 603.035156 C 1204.53125 603.035156 1204.511719 603.035156 1204.492188 603.035156 L 1204.492188 603.09375 C 1204.226562 603.421875 1203.9375 603.707031 1203.613281 603.972656 L 1176.082031 626.339844 L 1177.371094 627.933594 L 1204.941406 605.585938 C 1205.125 605.421875 1205.285156 605.257812 1205.449219 605.074219 C 1207.226562 605.074219 1208.921875 605.789062 1210.085938 607.140625 C 1212.1875 609.570312 1212.066406 613.246094 1209.757812 615.511719 L 1184.539062 640.472656 L 1185.96875 641.921875 L 1210.167969 617.984375 C 1210.390625 618.128906 1210.636719 618.230469 1210.863281 618.414062 C 1213.375 620.414062 1213.90625 624.070312 1212.066406 626.707031 L 1191.789062 655.832031 L 1193.460938 656.996094 L 1213.742188 627.871094 C 1216.191406 624.359375 1215.476562 619.496094 1212.128906 616.820312 Z M 1212.128906 616.820312 " fill-opacity="1" fill-rule="nonzero"/></svg>